<?xml version="1.0" encoding="UTF-8"?>
<!DOCTYPE svg PUBLIC "-//W3C//DTD SVG 1.1//EN" "http://www.w3.org/Graphics/SVG/1.1/DTD/svg11.dtd">
<svg xmlns="http://www.w3.org/2000/svg" version="1.1" width="5539px" height="2371px" style="shape-rendering:geometricPrecision; text-rendering:geometricPrecision; image-rendering:optimizeQuality; fill-rule:evenodd; clip-rule:evenodd" xmlns:xlink="http://www.w3.org/1999/xlink">
<g><path style="opacity:0.997" fill="#e4ac2d" d="M 2767.5,-0.5 C 2790.83,-0.5 2814.17,-0.5 2837.5,-0.5C 3139.58,12.2727 3400.58,121.106 3620.5,326C 3693.68,396.464 3757.02,474.464 3810.5,560C 4083.5,560.333 4356.5,560.667 4629.5,561C 4662.88,562.96 4695.88,567.626 4728.5,575C 4829.73,601.641 4929.73,632.307 5028.5,667C 5054.02,675.729 5078.69,686.395 5102.5,699C 5105.58,700.711 5106.75,703.211 5106,706.5C 5103.8,709.04 5101.3,711.207 5098.5,713C 5069.97,726.954 5040.64,738.954 5010.5,749C 4915.24,781.643 4818.91,810.643 4721.5,836C 4687.22,843.421 4652.55,847.754 4617.5,849C 4391.83,849.167 4166.17,849.667 3940.5,850.5C 3960.32,917.935 3973.99,986.602 3981.5,1056.5C 4338.17,1056.33 4694.83,1056.5 5051.5,1057C 5090.68,1058.6 5129.35,1063.93 5167.5,1073C 5269.69,1100.51 5370.69,1131.84 5470.5,1167C 5486.33,1172.94 5501.99,1179.28 5517.5,1186C 5524.91,1189.6 5531.91,1193.76 5538.5,1198.5C 5538.5,1200.17 5538.5,1201.83 5538.5,1203.5C 5532.03,1209.24 5524.7,1213.74 5516.5,1217C 5455.87,1241.43 5394.2,1263.1 5331.5,1282C 5279.07,1298.14 5226.4,1313.48 5173.5,1328C 5136.37,1337.21 5098.7,1342.88 5060.5,1345C 4699.5,1345.5 4338.5,1345.67 3977.5,1345.5C 3969.03,1410.39 3955.03,1474.06 3935.5,1536.5C 4166.83,1537.33 4398.17,1537.83 4629.5,1538C 4681.3,1541.16 4731.97,1550.49 4781.5,1566C 4858.44,1587.65 4934.77,1611.31 5010.5,1637C 5039.89,1646.91 5068.56,1658.57 5096.5,1672C 5100.24,1673.74 5103.41,1676.24 5106,1679.5C 5106.75,1682.79 5105.58,1685.29 5102.5,1687C 5078.73,1699.6 5054.06,1710.26 5028.5,1719C 4930.31,1753.38 4830.97,1784.05 4730.5,1811C 4693.31,1819.55 4655.64,1824.55 4617.5,1826C 4345.17,1826.33 4072.83,1826.67 3800.5,1827C 3651.12,2054.33 3448.12,2214 3191.5,2306C 3080.8,2343.89 2967.13,2365.39 2850.5,2370.5C 2818.83,2370.5 2787.17,2370.5 2755.5,2370.5C 2435.94,2353.27 2165.11,2230.6 1943,2002.5C 1892.02,1948.04 1846.19,1889.71 1805.5,1827.5C 1510.83,1826.67 1216.17,1826.17 921.5,1826C 883.025,1824.61 845.025,1819.61 807.5,1811C 691.618,1780.48 577.618,1744.15 465.5,1702C 455.221,1697.53 445.221,1692.53 435.5,1687C 430.34,1683.43 430.34,1679.76 435.5,1676C 446.942,1668.95 458.942,1662.95 471.5,1658C 531.727,1635.15 592.727,1614.48 654.5,1596C 698.031,1582.87 741.698,1570.2 785.5,1558C 825.813,1547.11 866.813,1540.45 908.5,1538C 1162.17,1537.5 1415.83,1537.33 1669.5,1537.5C 1650.91,1474.86 1636.91,1411.2 1627.5,1346.5C 1239.16,1345.99 850.822,1345.16 462.5,1344C 433.852,1341.72 405.519,1337.38 377.5,1331C 274.269,1303.7 172.269,1272.37 71.5,1237C 53.9404,1230.55 36.607,1223.55 19.5,1216C 12.3006,1212.57 5.63393,1208.41 -0.5,1203.5C -0.5,1201.83 -0.5,1200.17 -0.5,1198.5C 4.80369,1194.51 10.4704,1191.01 16.5,1188C 34.2728,1180.11 52.2728,1172.78 70.5,1166C 168.051,1131.71 266.717,1101.04 366.5,1074C 406.254,1064.23 446.587,1058.56 487.5,1057C 866.167,1056.67 1244.83,1056.33 1623.5,1056C 1631.35,986.08 1645.35,917.414 1665.5,850C 1417.17,849.667 1168.83,849.333 920.5,849C 876.811,847.33 833.811,840.997 791.5,830C 698.938,804.609 607.272,776.275 516.5,745C 488.878,735.854 462.211,724.521 436.5,711C 434.443,709.281 432.776,707.281 431.5,705C 431.99,703.018 432.99,701.351 434.5,700C 455.945,688.113 478.278,678.113 501.5,670C 610.475,631.008 721.142,597.674 833.5,570C 858.313,565.44 883.313,562.44 908.5,561C 1203.83,560.667 1499.17,560.333 1794.5,560C 1955.79,306.588 2180.45,135.588 2468.5,47C 2566.35,18.802 2666.01,2.96868 2767.5,-0.5 Z M 2785.5,320.5 C 3040.63,320.426 3256.47,411.426 3433,593.5C 3585.92,760.118 3664.09,957.284 3667.5,1185C 3663.86,1419.97 3581.36,1621.81 3420,1790.5C 3258.63,1951.25 3063.46,2037.42 2834.5,2049C 2594.43,2054.12 2386.43,1976.12 2210.5,1815C 2042.01,1652.47 1951.51,1453.64 1939,1218.5C 1933.56,973.382 2014.23,762.049 2181,584.5C 2347.12,417.059 2548.62,329.059 2785.5,320.5 Z"/></g>
<g><path style="opacity:0.998" fill="#e4ac2d" d="M 2776.5,736.5 C 2918.3,731.572 3037.8,780.238 3135,882.5C 3228.88,990.188 3265.88,1115.19 3246,1257.5C 3223.94,1380.54 3162.77,1478.71 3062.5,1552C 2954.12,1625.68 2835.45,1649.68 2706.5,1624C 2572.04,1591.73 2471.54,1515.23 2405,1394.5C 2347.32,1279.57 2338.32,1160.9 2378,1038.5C 2427.77,903.731 2519.94,811.231 2654.5,761C 2694.24,747.486 2734.9,739.32 2776.5,736.5 Z"/></g>
</svg>
